<?xml version="1.0" encoding="UTF-8" standalone="no"?>
<!DOCTYPE svg PUBLIC "-//W3C//DTD SVG 1.1//EN" "http://www.w3.org/Graphics/SVG/1.1/DTD/svg11.dtd">
<svg xmlns="http://www.w3.org/2000/svg" version="1.1" viewBox="0.00 0.00 2146.00 823.00">
<path fill="#000000" d="
  M 579.44 57.42
  A 0.17 0.17 0.0 0 1 579.27 57.14
  Q 593.24 41.80 611.72 33.27
  Q 621.56 28.72 633.21 27.02
  Q 647.11 24.98 660.93 27.31
  Q 674.18 29.55 687.47 35.42
  Q 704.94 43.13 718.52 56.69
  A 0.35 0.34 -51.7 0 0 719.05 56.62
  Q 724.79 47.03 733.60 40.32
  Q 743.55 32.74 753.48 27.47
  Q 789.64 8.30 829.90 2.18
  Q 837.02 1.09 843.79 0.78
  Q 853.82 0.31 857.77 0.83
  Q 867.77 2.14 875.97 9.08
  Q 876.31 9.37 876.81 9.98
  A 1.17 1.17 0.0 0 1 876.01 11.88
  Q 852.96 14.01 831.28 20.30
  C 805.30 27.84 781.01 40.46 761.13 58.40
  Q 750.22 68.26 739.09 81.85
  Q 736.73 84.74 733.64 87.54
  A 1.49 1.48 31.5 0 1 732.26 87.87
  C 730.42 87.36 729.22 86.01 727.62 84.88
  Q 720.42 79.80 712.03 74.48
  Q 698.92 66.18 684.60 59.93
  Q 674.40 55.48 662.70 52.85
  Q 642.45 48.31 619.85 50.40
  Q 605.26 51.75 591.12 54.88
  Q 587.01 55.79 579.44 57.42
  Z"
/>
<path fill="#000000" d="
  M 0.00 119.03
  L 0.00 116.53
  Q 0.74 108.00 3.91 102.40
  C 9.86 91.91 18.25 84.54 28.02 77.77
  Q 28.44 77.48 44.06 67.76
  Q 54.41 61.32 55.60 60.60
  Q 89.83 40.07 131.13 26.46
  C 131.92 26.20 132.59 25.73 133.56 25.72
  Q 133.85 25.72 134.77 25.40
  Q 143.42 22.48 152.80 20.51
  Q 158.67 19.27 159.76 18.86
  A 2.20 2.14 35.1 0 1 160.70 18.71
  C 162.65 18.82 164.68 18.02 166.84 17.68
  Q 171.40 16.98 179.52 15.88
  Q 211.06 11.65 243.45 14.09
  Q 271.48 16.21 298.08 24.14
  Q 314.95 29.16 329.94 37.56
  Q 343.22 44.99 354.36 55.63
  Q 356.51 57.68 359.06 60.68
  Q 363.10 65.43 363.42 65.84
  Q 375.99 82.41 379.44 99.25
  C 382.99 116.56 382.16 136.08 379.92 153.58
  Q 377.94 169.06 373.38 184.78
  A 0.51 0.51 0.0 0 0 373.89 185.43
  Q 378.36 185.25 388.63 184.73
  Q 395.32 184.40 399.73 185.86
  Q 410.06 189.30 415.72 198.55
  A 3.92 3.88 -69.5 0 1 416.15 199.51
  Q 418.28 206.86 411.46 209.99
  A 2.57 2.55 -58.6 0 1 410.45 210.24
  L 364.31 212.17
  A 1.35 1.35 0.0 0 0 363.13 212.99
  Q 353.87 234.62 341.25 254.27
  C 326.14 277.82 309.65 299.63 291.41 322.66
  Q 266.72 353.85 264.50 356.75
  Q 251.32 374.04 247.78 378.81
  A 3.48 3.08 -88.3 0 1 247.29 379.33
  Q 243.59 382.45 238.38 382.92
  Q 223.40 384.24 208.76 379.47
  C 203.41 377.73 188.13 371.71 191.06 363.72
  C 191.60 362.25 191.74 360.92 192.28 359.64
  Q 198.99 343.48 207.61 331.82
  C 226.11 306.80 247.06 283.36 269.78 257.15
  C 280.75 244.50 290.30 232.07 298.98 219.26
  A 0.45 0.45 0.0 0 0 298.55 218.56
  Q 272.80 221.85 248.25 226.29
  Q 176.48 239.28 108.83 265.39
  Q 101.05 268.40 100.37 268.60
  C 97.88 269.33 94.97 268.98 91.84 268.32
  Q 74.27 264.61 58.93 254.32
  C 54.78 251.54 51.01 248.36 49.88 244.26
  A 1.64 1.61 48.3 0 1 49.93 243.28
  Q 50.83 240.92 54.54 239.31
  Q 87.65 224.93 127.68 214.16
  C 129.40 213.69 130.92 213.74 131.91 213.03
  A 1.92 1.90 -61.9 0 1 133.04 212.68
  Q 134.80 212.70 135.90 212.00
  A 2.08 2.05 29.0 0 1 137.04 211.68
  Q 138.81 211.72 139.96 210.98
  A 2.15 2.14 -60.2 0 1 141.23 210.63
  C 142.95 210.68 143.86 209.81 145.43 209.70
  Q 147.55 209.56 148.07 209.04
  C 148.45 208.67 150.48 208.61 151.69 208.31
  Q 156.77 207.02 163.98 205.63
  Q 168.58 204.75 171.64 203.94
  C 173.20 203.53 174.80 203.83 176.15 203.26
  Q 177.60 202.65 179.45 202.59
  C 181.29 202.52 182.19 201.60 183.89 201.67
  Q 186.11 201.75 188.24 200.88
  A 2.89 2.79 34.2 0 1 189.39 200.68
  Q 191.89 200.76 194.19 199.89
  A 3.59 3.56 -55.1 0 1 195.45 199.66
  Q 198.20 199.68 200.26 198.88
  A 3.11 3.07 -54.4 0 1 201.48 198.67
  Q 204.31 198.75 205.95 198.06
  A 4.38 4.36 33.5 0 1 207.64 197.72
  Q 211.10 197.75 213.37 196.96
  A 4.08 3.89 34.6 0 1 214.74 196.74
  C 217.88 196.83 221.12 195.91 224.77 195.49
  Q 269.06 190.35 315.08 188.12
  A 1.92 1.91 10.6 0 0 316.73 187.00
  Q 325.01 168.75 328.09 149.84
  Q 330.43 135.43 329.19 122.13
  Q 327.89 108.30 323.53 94.96
  C 319.94 83.99 309.69 75.13 299.02 69.48
  Q 285.72 62.43 270.88 58.88
  Q 256.68 55.49 242.48 54.35
  Q 203.78 51.24 165.83 59.83
  Q 136.07 66.57 107.51 79.26
  C 94.30 85.13 81.28 92.08 70.13 101.38
  C 66.04 104.80 60.52 110.96 65.13 116.07
  A 1.43 1.29 81.6 0 0 65.47 116.35
  L 68.89 118.47
  A 0.23 0.22 -19.7 0 0 68.98 118.51
  Q 75.44 120.42 77.78 120.68
  Q 87.83 121.76 96.00 121.30
  Q 97.51 121.22 130.50 119.06
  Q 152.75 117.60 173.72 120.02
  Q 181.89 120.96 190.70 124.12
  Q 198.84 127.04 201.26 134.29
  Q 203.71 141.60 200.32 148.98
  Q 197.27 155.62 189.57 158.98
  C 184.79 161.06 178.58 159.78 173.59 159.83
  Q 148.47 160.10 138.75 161.17
  Q 94.16 166.07 81.94 166.87
  C 73.90 167.40 63.72 166.87 55.07 165.32
  Q 42.17 163.01 28.46 156.58
  Q 26.09 155.46 20.27 151.52
  Q 7.77 143.05 2.23 129.02
  Q 0.47 124.56 0.00 119.03
  Z"
/>
<path fill="#000000" d="
  M 900.39 126.50
  A 0.56 0.55 -76.2 0 0 900.91 127.36
  Q 906.96 126.68 911.41 128.89
  C 916.42 131.39 916.61 137.94 914.08 142.37
  Q 909.50 150.39 901.18 152.39
  C 896.49 153.52 889.13 152.73 885.15 152.95
  A 1.82 1.82 0.0 0 0 883.70 153.81
  Q 870.47 174.97 859.44 193.41
  C 842.69 221.39 827.83 251.35 814.44 280.45
  Q 808.30 293.81 800.00 313.78
  Q 798.61 317.12 798.20 320.64
  A 1.40 1.40 0.0 0 0 799.88 322.17
  Q 802.43 321.62 804.76 319.76
  Q 811.02 314.74 815.95 310.69
  Q 831.84 297.66 844.29 281.41
  Q 848.12 276.41 850.21 272.28
  C 856.68 259.53 864.91 247.69 874.13 236.87
  Q 889.50 218.83 907.55 206.07
  Q 925.69 193.25 946.83 187.13
  Q 948.49 186.65 949.71 186.57
  C 951.21 186.47 952.06 185.65 953.50 185.66
  Q 956.08 185.69 959.02 184.84
  A 0.64 0.54 31.3 0 1 959.21 184.81
  L 969.57 184.56
  A 1.11 0.90 -32.4 0 1 969.82 184.59
  Q 980.22 187.03 987.94 194.60
  A 0.80 0.79 -47.4 0 0 989.11 194.55
  Q 1000.51 180.83 1018.50 184.56
  Q 1032.77 187.53 1037.50 201.23
  A 4.77 4.59 -57.9 0 1 1037.72 202.28
  Q 1038.44 210.73 1033.43 217.49
  Q 1022.62 232.08 1014.17 246.64
  Q 997.99 274.55 985.25 303.49
  Q 982.41 309.94 980.67 316.44
  Q 980.04 318.81 980.66 320.60
  A 1.53 1.53 0.0 0 0 982.57 321.57
  Q 985.12 320.77 987.71 319.19
  Q 991.08 317.13 999.34 310.34
  Q 1005.77 305.06 1015.83 294.64
  Q 1022.16 288.07 1030.53 277.28
  Q 1045.32 258.19 1053.92 247.18
  C 1055.15 245.61 1056.13 245.04 1058.17 244.71
  Q 1066.45 243.37 1078.29 241.80
  A 0.64 0.64 0.0 0 1 1079.00 242.29
  C 1080.30 247.90 1077.21 255.15 1074.13 259.90
  Q 1064.97 274.08 1050.02 294.27
  Q 1038.29 310.11 1024.10 324.35
  Q 1012.81 335.68 998.55 344.52
  Q 990.55 349.49 982.51 351.69
  C 969.78 355.17 953.36 354.18 944.62 343.19
  Q 939.12 336.28 937.84 327.10
  A 0.45 0.45 0.0 0 0 937.06 326.86
  Q 926.94 337.90 913.60 345.37
  Q 905.16 350.10 898.04 351.77
  Q 882.40 355.43 866.55 352.09
  C 851.95 349.02 841.91 342.06 838.46 327.41
  A 0.50 0.50 0.0 0 0 837.63 327.17
  Q 825.60 338.57 811.53 346.54
  C 799.68 353.25 784.18 355.95 771.15 350.90
  C 763.39 347.90 758.01 339.51 756.24 331.94
  Q 754.27 323.50 754.43 313.77
  Q 754.50 309.17 754.49 308.13
  A 0.36 0.36 0.0 0 0 753.95 307.83
  Q 745.07 313.20 740.79 315.03
  Q 734.66 317.65 731.38 319.24
  A 5.60 5.57 3.5 0 0 729.12 321.23
  Q 724.37 328.47 717.25 333.23
  Q 704.99 341.41 688.99 345.32
  Q 665.29 351.10 645.20 347.27
  C 642.94 346.84 640.13 345.88 637.57 345.06
  Q 629.46 342.45 626.05 334.75
  Q 624.59 331.46 625.03 326.98
  Q 625.39 323.31 627.55 319.50
  Q 632.75 310.35 642.50 305.50
  C 644.33 304.59 648.00 302.95 650.69 302.22
  Q 659.15 299.93 660.75 299.70
  Q 668.88 298.48 679.81 297.38
  A 0.90 0.89 80.3 0 0 680.59 296.27
  C 677.16 282.39 673.89 269.62 672.92 255.50
  C 672.57 250.31 672.80 244.29 674.68 239.78
  Q 675.66 237.43 675.89 235.42
  A 0.61 0.61 0.0 0 0 674.91 234.87
  Q 674.25 235.38 673.47 236.47
  Q 665.83 247.15 659.07 257.91
  A 4.70 4.65 71.3 0 0 658.67 258.73
  Q 657.61 261.54 655.63 264.63
  Q 650.85 272.12 646.43 278.18
  Q 636.23 292.17 626.22 304.21
  C 616.20 316.26 605.52 326.87 593.12 335.85
  Q 580.73 344.82 566.65 350.41
  Q 550.89 356.67 533.52 355.22
  Q 519.18 354.02 505.96 348.81
  Q 500.16 346.53 494.74 342.29
  Q 481.60 332.03 479.60 315.21
  A 0.50 0.50 0.0 0 0 478.72 314.95
  Q 462.76 334.10 441.22 346.69
  Q 430.59 352.91 417.06 353.44
  Q 405.03 353.91 395.93 347.66
  Q 390.59 344.00 387.22 336.86
  Q 383.41 328.81 383.99 318.75
  Q 384.34 312.62 384.96 309.46
  Q 387.99 293.85 393.50 277.77
  Q 406.28 240.49 426.66 207.44
  Q 428.41 204.59 434.22 196.49
  Q 441.96 185.69 454.23 183.98
  Q 462.78 182.78 470.99 186.51
  Q 481.95 191.49 484.28 202.59
  C 486.13 211.38 478.73 218.85 474.11 225.75
  C 462.18 243.56 452.35 261.56 442.39 281.14
  Q 435.88 293.92 430.84 306.07
  Q 428.52 311.67 427.37 316.55
  Q 426.83 318.84 426.87 320.51
  A 1.55 1.54 75.3 0 0 429.14 321.84
  Q 441.02 315.47 451.53 305.51
  Q 464.96 292.79 477.73 276.73
  Q 485.15 267.40 493.49 256.40
  Q 497.83 250.67 502.87 242.59
  Q 510.29 230.71 519.36 220.40
  Q 534.82 202.83 554.42 192.42
  Q 567.20 185.64 578.91 183.86
  Q 592.12 181.85 604.92 183.65
  Q 607.01 183.95 610.95 185.08
  Q 622.88 188.50 628.42 199.30
  Q 632.14 206.55 632.17 214.70
  Q 632.17 216.07 631.84 218.04
  C 631.53 219.90 631.80 222.29 630.85 224.17
  C 630.25 225.34 630.44 226.53 629.96 227.91
  Q 625.20 241.61 616.12 252.64
  Q 605.49 265.57 591.39 276.65
  Q 566.45 296.26 535.96 306.79
  A 1.29 1.28 80.3 0 0 535.09 308.02
  C 535.14 313.25 536.48 317.85 541.93 319.56
  Q 549.84 322.05 558.26 320.53
  Q 561.93 319.87 565.25 318.57
  Q 569.80 316.80 575.57 313.30
  Q 583.29 308.62 591.92 300.91
  C 604.99 289.25 615.86 275.09 627.75 259.75
  Q 638.17 246.33 645.86 234.62
  Q 651.51 226.03 656.94 218.19
  Q 658.13 216.47 664.02 209.27
  C 676.88 193.56 694.00 181.93 712.80 174.29
  Q 713.80 173.89 717.63 173.00
  A 6.37 6.31 -50.7 0 1 719.25 172.83
  Q 726.42 173.01 734.53 177.41
  C 742.89 181.94 751.87 189.90 753.94 199.34
  Q 755.01 204.23 751.06 207.06
  Q 746.75 210.16 743.31 212.07
  Q 736.00 216.13 730.63 222.80
  C 720.17 235.80 722.60 249.10 726.85 264.38
  Q 727.30 266.01 728.69 270.61
  C 730.35 276.10 731.07 281.38 732.18 287.91
  A 0.49 0.49 0.0 0 0 732.85 288.28
  Q 742.51 284.41 750.14 277.39
  Q 755.54 272.41 760.87 266.12
  Q 767.34 258.49 772.84 250.85
  Q 773.65 249.73 774.92 247.18
  Q 797.96 200.81 822.92 154.38
  A 0.45 0.45 0.0 0 0 822.46 153.72
  C 814.98 154.79 808.44 149.99 810.86 142.05
  Q 814.24 130.98 826.58 128.06
  A 1.32 1.24 37.3 0 1 826.97 128.02
  L 837.46 128.04
  A 2.68 2.66 15.0 0 0 839.77 126.72
  Q 850.84 107.82 863.76 92.02
  Q 870.28 84.04 879.13 80.14
  Q 881.55 79.08 886.13 78.33
  Q 890.14 77.68 893.33 78.16
  C 899.55 79.10 905.05 81.95 908.36 87.51
  Q 912.38 94.24 911.51 102.04
  C 911.25 104.31 910.50 106.07 910.24 108.16
  A 4.88 4.52 -32.2 0 1 909.92 109.35
  Q 906.60 117.23 900.39 126.50
  Z
  M 886.61 312.46
  Q 885.88 318.23 889.31 323.20
  C 893.13 328.75 903.62 323.29 907.60 320.25
  Q 918.42 312.02 927.58 300.32
  C 940.43 283.91 951.46 265.52 959.77 246.00
  C 964.04 235.99 967.58 228.61 968.63 219.75
  Q 969.10 215.82 966.56 213.80
  A 2.22 2.16 -21.4 0 0 965.51 213.35
  Q 958.25 212.37 951.46 216.49
  Q 945.95 219.82 941.12 224.04
  C 936.20 228.35 930.31 234.55 925.84 240.18
  Q 906.61 264.34 893.21 293.22
  C 890.05 300.02 887.43 305.94 886.61 312.46
  Z
  M 545.05 277.16
  Q 570.40 263.38 589.02 241.13
  Q 591.73 237.89 593.67 234.61
  C 596.75 229.43 599.46 225.17 600.28 219.61
  A 1.69 1.66 38.0 0 0 600.16 218.70
  Q 599.03 215.96 595.71 217.52
  Q 589.51 220.43 583.72 225.49
  Q 561.83 244.65 548.55 268.56
  Q 546.66 271.95 544.47 276.61
  A 0.42 0.42 0.0 0 0 545.05 277.16
  Z"
/>
<path fill="#000000" d="
  M 477.60 170.33
  Q 462.89 162.58 463.22 144.84
  Q 463.33 139.15 466.67 132.67
  Q 472.21 121.90 480.67 114.52
  Q 484.02 111.59 491.08 109.15
  Q 499.63 106.20 509.14 109.16
  Q 522.54 113.33 525.93 126.27
  Q 527.56 132.52 525.94 140.04
  Q 522.78 154.58 511.15 164.94
  C 502.06 173.04 489.03 176.35 477.60 170.33
  Z"
/>
<path fill="#000000" d="
  M 1231.74 266.58
  A 0.15 0.15 0.0 0 0 1232.00 266.61
  Q 1238.16 258.28 1246.85 253.05
  Q 1261.31 244.34 1277.50 239.70
  Q 1282.98 238.13 1283.24 237.99
  A 2.41 2.31 -58.0 0 1 1284.27 237.73
  Q 1286.50 237.67 1287.18 237.33
  C 1289.24 236.31 1290.90 236.90 1293.13 235.98
  A 2.91 2.78 -57.0 0 1 1294.06 235.76
  C 1303.94 235.05 1313.67 232.72 1321.62 240.09
  A 0.70 0.70 0.0 0 1 1321.22 241.30
  Q 1315.77 241.93 1310.14 242.87
  Q 1287.93 246.58 1269.00 257.98
  Q 1268.18 258.47 1261.89 263.04
  C 1254.14 268.69 1247.19 276.41 1241.34 283.73
  A 1.71 1.71 0.0 0 1 1239.00 284.04
  Q 1229.36 277.01 1219.84 271.91
  C 1209.43 266.33 1198.28 263.06 1186.25 262.92
  Q 1174.51 262.78 1164.31 264.87
  Q 1161.64 265.41 1159.89 265.55
  A 0.13 0.04 -28.2 0 0 1159.84 265.56
  L 1153.63 267.21
  A 0.24 0.24 0.0 0 1 1153.39 266.82
  Q 1164.17 254.76 1179.26 250.74
  Q 1184.18 249.43 1190.90 249.41
  Q 1196.81 249.39 1202.55 250.66
  Q 1219.00 254.29 1231.62 266.21
  Q 1231.63 266.22 1231.68 266.38
  Q 1231.71 266.50 1231.74 266.58
  Z"
/>
<path fill="#000000" d="
  M 1170.55 530.66
  A 0.40 0.39 9.3 0 0 1170.97 531.24
  Q 1178.70 529.78 1184.91 528.14
  Q 1186.67 527.68 1187.45 527.66
  C 1189.06 527.61 1190.36 526.46 1191.70 526.64
  C 1193.22 526.84 1194.05 525.64 1195.70 525.71
  Q 1196.98 525.75 1198.18 525.00
  C 1199.20 524.37 1200.55 524.99 1201.63 524.23
  C 1202.87 523.36 1204.62 523.96 1206.18 523.02
  C 1207.20 522.41 1208.47 522.93 1209.62 522.22
  C 1210.86 521.47 1212.72 521.99 1213.84 521.11
  C 1214.85 520.31 1216.20 520.91 1217.42 520.26
  Q 1217.92 519.99 1219.19 519.65
  Q 1239.83 514.08 1257.00 507.75
  Q 1268.22 503.62 1280.84 497.90
  Q 1300.43 489.04 1314.93 478.66
  C 1329.49 468.24 1345.45 451.03 1333.32 431.93
  C 1327.18 422.25 1316.73 416.09 1306.35 411.71
  Q 1294.37 406.64 1278.74 403.75
  Q 1250.97 398.62 1221.15 400.87
  Q 1187.71 403.39 1152.57 408.82
  Q 1145.68 409.88 1134.25 412.27
  Q 1099.42 419.53 1072.38 429.44
  Q 1048.18 438.31 1024.45 450.64
  A 4.50 4.47 -51.2 0 1 1021.24 451.00
  C 1016.51 449.77 1011.83 444.20 1009.12 439.95
  C 1003.56 431.24 1001.58 420.14 1005.99 410.69
  C 1009.35 403.52 1015.53 397.88 1022.69 393.96
  Q 1043.82 382.38 1069.64 374.63
  Q 1084.70 370.10 1100.63 366.44
  C 1101.75 366.19 1102.69 365.58 1103.85 365.67
  Q 1104.36 365.71 1105.38 365.46
  Q 1108.31 364.75 1111.08 364.02
  Q 1112.56 363.63 1113.97 363.61
  C 1115.38 363.58 1116.20 362.69 1117.70 362.69
  Q 1119.74 362.68 1121.04 362.02
  A 2.75 2.67 29.4 0 1 1122.22 361.71
  Q 1124.93 361.64 1126.01 361.24
  C 1128.10 360.45 1130.27 360.91 1132.22 359.95
  A 2.35 2.25 31.1 0 1 1133.29 359.71
  C 1134.33 359.72 1136.17 359.65 1137.50 359.16
  C 1139.78 358.33 1141.71 358.85 1144.10 357.97
  C 1145.71 357.38 1147.99 357.80 1150.23 357.01
  A 3.97 3.95 35.7 0 1 1151.59 356.79
  Q 1154.59 356.86 1157.25 355.97
  A 3.42 3.38 34.7 0 1 1158.28 355.79
  C 1161.70 355.75 1164.51 355.02 1167.98 354.60
  Q 1178.78 353.30 1189.79 352.11
  Q 1206.48 350.31 1219.71 349.16
  Q 1254.31 346.17 1281.94 349.64
  Q 1309.39 353.09 1335.30 362.68
  Q 1339.89 364.38 1346.21 367.29
  Q 1368.70 377.65 1384.40 392.82
  Q 1395.87 403.92 1403.20 419.41
  C 1404.21 421.55 1405.01 424.50 1405.97 426.92
  C 1406.59 428.51 1406.38 429.59 1406.98 431.15
  Q 1407.52 432.58 1407.54 432.72
  Q 1409.23 447.87 1406.96 456.71
  Q 1402.96 472.26 1393.59 484.86
  Q 1390.00 489.69 1388.41 491.43
  Q 1377.52 503.43 1363.53 512.80
  Q 1348.34 522.98 1334.83 529.33
  C 1308.04 541.93 1279.56 551.13 1251.12 557.84
  Q 1230.48 562.72 1207.42 566.36
  Q 1178.88 570.86 1149.74 573.41
  A 0.88 0.87 -80.5 0 0 1149.03 573.92
  Q 1138.08 598.76 1130.97 624.49
  Q 1129.02 631.53 1126.91 641.20
  Q 1125.28 648.63 1124.86 657.90
  Q 1124.17 673.18 1124.09 674.76
  Q 1123.67 683.80 1120.40 690.10
  Q 1118.64 693.48 1114.94 695.23
  Q 1113.33 695.99 1107.59 697.19
  C 1095.50 699.72 1082.40 700.56 1070.22 698.03
  Q 1067.55 697.48 1063.73 695.52
  Q 1060.38 693.80 1058.67 690.49
  Q 1057.49 688.19 1057.64 683.48
  Q 1058.62 653.18 1063.66 628.02
  Q 1067.45 609.06 1075.70 586.45
  Q 1086.28 557.44 1099.42 529.90
  Q 1114.72 497.82 1135.56 468.05
  Q 1149.67 447.91 1164.54 431.54
  Q 1171.53 423.84 1177.41 418.67
  C 1179.40 416.93 1181.94 415.99 1184.78 415.38
  Q 1190.34 414.21 1199.49 414.54
  Q 1216.00 415.15 1231.09 421.17
  Q 1235.24 422.82 1239.60 425.92
  C 1242.43 427.93 1244.45 431.22 1242.94 434.68
  A 2.66 2.55 -11.5 0 1 1242.33 435.56
  Q 1229.06 448.33 1220.09 459.10
  Q 1192.52 492.18 1170.55 530.66
  Z"
/>
<path fill="#000000" d="
  M 805.30 532.10
  Q 802.27 534.81 801.09 535.81
  Q 790.69 544.70 781.03 547.20
  Q 774.35 548.93 766.20 546.89
  Q 758.89 545.06 753.71 539.04
  Q 747.81 532.17 746.75 524.20
  Q 745.43 514.29 746.97 505.81
  Q 747.89 500.71 747.77 500.10
  A 0.82 0.82 0.0 0 1 747.91 499.48
  Q 748.07 499.27 748.67 496.69
  Q 751.20 485.85 755.60 474.69
  Q 770.85 436.07 799.59 407.65
  Q 804.45 402.84 814.47 395.49
  Q 824.32 388.27 835.53 384.88
  A 1.11 0.89 -49.1 0 1 835.67 384.85
  L 842.13 383.85
  A 1.16 0.80 -36.9 0 1 842.38 383.84
  Q 857.24 383.96 856.27 398.70
  Q 856.09 401.35 854.37 407.46
  Q 853.27 411.33 851.14 415.80
  Q 838.97 441.33 819.34 461.84
  C 808.87 472.78 797.30 480.69 783.83 487.34
  A 2.57 2.56 -3.9 0 0 782.55 488.80
  Q 778.91 499.33 776.75 511.00
  C 776.24 513.72 776.11 516.29 775.87 519.12
  Q 775.53 523.15 776.48 525.14
  C 782.73 538.23 804.31 512.81 808.83 507.17
  Q 811.76 503.52 815.34 497.25
  Q 826.58 477.55 844.75 463.83
  Q 855.52 455.68 867.22 452.05
  Q 871.92 450.59 878.26 449.94
  Q 886.82 449.05 893.13 455.37
  A 1.10 1.09 -47.2 0 0 894.73 455.30
  Q 900.77 448.27 910.28 449.65
  C 915.89 450.46 921.31 454.04 922.50 459.75
  C 923.34 463.84 921.95 466.68 919.37 470.33
  Q 913.93 478.00 912.26 480.75
  Q 899.37 501.93 890.78 522.49
  Q 889.44 525.70 889.20 528.54
  A 1.25 1.25 0.0 0 0 890.97 529.79
  C 892.56 529.06 894.92 527.91 896.38 526.69
  Q 907.66 517.29 912.94 510.93
  Q 918.87 503.77 929.66 489.65
  Q 932.18 486.35 934.75 483.55
  Q 936.15 482.02 940.63 480.93
  A 1.94 1.89 47.6 0 1 941.68 480.99
  Q 946.68 482.74 946.20 488.19
  Q 945.95 491.04 943.39 494.92
  Q 932.07 512.03 922.18 523.69
  Q 913.76 533.61 903.52 541.00
  Q 898.91 544.33 893.19 546.62
  Q 887.40 548.93 880.58 548.42
  C 871.61 547.74 865.89 542.24 864.47 533.61
  A 0.50 0.49 61.7 0 0 863.62 533.35
  Q 858.90 538.46 852.84 542.34
  Q 839.69 550.76 823.87 548.02
  C 814.55 546.41 808.26 542.05 806.00 532.32
  A 0.43 0.42 -27.4 0 0 805.30 532.10
  Z
  M 793.60 465.47
  Q 795.15 464.20 798.11 462.06
  C 804.78 457.25 810.50 450.52 815.30 443.80
  Q 823.21 432.69 829.57 420.87
  C 832.42 415.58 835.06 411.27 836.82 405.17
  A 1.00 1.00 0.0 0 0 835.25 404.09
  Q 831.67 406.80 828.07 411.07
  Q 818.33 422.61 810.36 434.85
  C 804.49 443.86 797.77 454.78 793.12 465.11
  A 0.31 0.31 0.0 0 0 793.60 465.47
  Z
  M 882.36 470.47
  C 883.09 465.16 877.16 466.31 874.33 467.60
  C 868.68 470.15 862.78 475.85 858.86 480.60
  Q 847.28 494.62 838.74 512.23
  Q 836.91 516.01 835.00 521.73
  Q 833.37 526.61 835.88 530.64
  C 837.92 533.90 843.53 531.30 845.88 529.64
  Q 850.53 526.38 854.10 522.35
  C 865.58 509.42 874.23 494.20 880.51 478.00
  Q 881.79 474.70 882.36 470.47
  Z"
/>
<path fill="#000000" d="
  M 579.42 454.17
  Q 585.38 443.14 589.48 435.68
  Q 600.04 416.44 608.69 404.18
  C 613.80 396.94 619.45 388.49 628.98 387.66
  C 635.14 387.13 640.50 390.02 642.46 396.05
  Q 643.63 399.65 642.49 404.06
  Q 641.59 407.54 639.24 411.51
  Q 629.79 427.50 615.59 449.91
  Q 613.94 452.51 609.92 459.49
  Q 605.66 466.91 604.45 469.20
  Q 590.83 495.02 579.17 521.65
  Q 577.77 524.85 576.93 528.62
  A 0.96 0.96 0.0 0 0 578.36 529.65
  Q 590.91 522.05 600.42 510.17
  Q 612.96 494.49 616.94 488.70
  C 622.93 479.96 627.88 472.43 635.27 465.48
  Q 646.95 454.47 659.31 450.77
  Q 668.31 448.07 677.69 449.05
  Q 681.10 449.40 684.69 450.57
  C 690.48 452.46 694.56 457.91 695.59 463.37
  Q 696.52 468.30 695.02 474.10
  Q 693.74 479.05 690.55 483.98
  Q 685.36 491.98 677.82 498.83
  Q 660.95 514.17 639.94 521.17
  A 1.01 1.00 -8.1 0 0 639.25 522.08
  C 639.02 529.18 645.63 530.05 651.27 529.50
  C 657.44 528.89 663.96 524.86 668.74 520.99
  C 679.74 512.06 687.87 501.26 698.58 487.00
  A 6.69 5.73 -89.3 0 1 699.23 486.26
  Q 701.00 484.51 702.60 483.38
  C 705.98 481.01 711.55 480.15 712.38 485.57
  C 713.13 490.54 711.34 494.28 708.49 498.54
  Q 700.31 510.80 690.23 522.49
  C 681.74 532.33 672.02 540.22 660.39 545.67
  Q 649.13 550.96 635.51 549.26
  Q 625.58 548.01 619.04 544.29
  Q 608.61 538.36 606.86 526.64
  A 0.53 0.52 61.1 0 0 605.94 526.37
  Q 596.13 537.98 583.35 545.03
  Q 577.70 548.14 570.71 548.48
  Q 553.72 549.30 551.60 532.65
  A 0.37 0.37 0.0 0 0 550.97 532.44
  C 543.63 539.61 534.58 546.97 523.72 548.26
  C 515.62 549.22 506.25 548.45 499.85 544.20
  C 491.28 538.52 490.98 527.75 493.17 518.13
  Q 495.55 507.65 501.34 497.60
  C 513.37 476.74 531.81 458.84 555.02 451.60
  Q 557.69 450.76 559.51 450.62
  C 561.77 450.44 563.31 449.80 565.60 449.76
  Q 572.71 449.64 578.53 454.34
  A 0.59 0.59 0.0 0 0 579.42 454.17
  Z
  M 568.52 470.47
  C 569.24 465.16 563.32 466.33 560.49 467.62
  C 554.86 470.18 548.98 475.89 545.08 480.64
  Q 533.54 494.67 525.06 512.27
  Q 523.24 516.05 521.34 521.77
  Q 519.73 526.64 522.24 530.66
  C 524.29 533.91 529.88 531.30 532.23 529.64
  Q 536.86 526.37 540.42 522.34
  C 551.85 509.40 560.45 494.18 566.69 477.99
  Q 567.96 474.69 568.52 470.47
  Z
  M 645.32 503.64
  Q 650.28 501.48 654.76 498.03
  Q 664.10 490.82 671.64 481.67
  Q 675.69 476.75 677.29 470.75
  A 1.19 1.19 0.0 0 0 677.13 469.78
  Q 676.05 468.16 673.88 469.44
  Q 669.15 472.21 665.89 475.40
  Q 659.41 481.73 654.19 488.22
  C 650.15 493.23 647.73 497.68 644.91 503.21
  A 0.32 0.32 0.0 0 0 645.32 503.64
  Z"
/>
<path fill="#000000" d="
  M 1988.42 677.51
  A 0.39 0.38 62.2 0 0 1987.76 677.30
  Q 1977.72 688.18 1964.97 695.98
  C 1956.22 701.34 1947.44 704.92 1937.68 706.32
  Q 1920.09 708.85 1902.63 703.37
  Q 1883.32 697.32 1878.37 677.01
  A 0.32 0.31 62.2 0 0 1877.86 676.85
  L 1875.33 679.08
  A 0.47 0.46 -59.2 0 1 1874.92 679.19
  L 1874.67 679.15
  A 0.07 0.06 -62.7 0 1 1874.64 679.04
  Q 1874.93 678.69 1874.91 678.55
  A 0.54 0.41 -30.3 0 0 1874.08 678.45
  Q 1860.29 691.29 1843.83 702.06
  Q 1828.16 712.30 1808.93 721.91
  C 1807.22 722.76 1806.12 723.95 1805.21 725.82
  Q 1797.48 741.65 1789.46 755.70
  Q 1779.10 773.84 1765.62 788.11
  Q 1758.84 795.29 1750.15 801.89
  Q 1731.52 816.03 1709.89 820.34
  Q 1692.22 823.87 1677.57 821.37
  Q 1661.59 818.63 1648.70 807.33
  Q 1640.02 799.72 1637.07 789.49
  Q 1635.03 782.45 1637.02 774.02
  Q 1639.15 764.98 1645.20 757.95
  C 1651.82 750.25 1660.87 744.87 1670.27 740.53
  Q 1682.54 734.87 1693.88 730.55
  Q 1704.16 726.63 1718.12 722.32
  Q 1737.22 716.42 1758.64 708.98
  A 3.79 3.77 -83.2 0 0 1760.60 707.43
  Q 1762.05 705.18 1763.66 701.64
  Q 1770.09 687.57 1775.43 672.92
  A 0.15 0.15 0.0 0 0 1775.19 672.76
  Q 1766.50 681.55 1756.97 688.94
  Q 1751.52 693.17 1742.55 698.50
  Q 1723.04 710.09 1701.47 705.28
  Q 1696.27 704.12 1690.78 700.03
  C 1683.26 694.43 1679.14 685.03 1678.39 675.89
  Q 1678.32 675.05 1677.81 668.65
  A 0.27 0.27 0.0 0 0 1677.34 668.48
  Q 1669.05 676.95 1667.04 678.78
  C 1656.54 688.29 1644.68 697.14 1632.19 702.63
  Q 1625.10 705.74 1615.26 706.57
  Q 1605.49 707.38 1596.16 704.36
  Q 1594.89 703.95 1591.75 702.32
  C 1584.13 698.34 1579.07 690.03 1577.03 681.71
  Q 1576.94 681.34 1576.06 677.49
  A 0.32 0.32 0.0 0 0 1575.52 677.34
  Q 1567.05 686.49 1556.69 693.45
  Q 1544.95 701.34 1534.49 704.36
  Q 1518.85 708.89 1500.82 705.97
  Q 1492.21 704.57 1485.18 701.27
  Q 1469.12 693.72 1466.22 675.60
  A 0.50 0.49 66.6 0 0 1465.43 675.28
  Q 1463.93 676.44 1463.42 676.91
  Q 1449.85 689.53 1436.87 696.87
  Q 1428.26 701.74 1420.63 703.84
  C 1410.46 706.64 1398.50 706.16 1388.23 702.85
  Q 1382.57 701.03 1376.87 697.12
  Q 1360.91 686.15 1355.64 666.85
  Q 1353.54 659.15 1353.31 651.00
  Q 1352.85 634.25 1356.12 617.82
  Q 1357.33 611.76 1357.73 610.01
  Q 1362.87 587.59 1372.68 563.43
  Q 1395.40 507.46 1434.63 461.63
  Q 1449.07 444.75 1465.72 430.71
  Q 1478.75 419.72 1492.06 411.59
  Q 1504.25 404.14 1516.01 400.02
  C 1524.97 396.89 1539.00 394.69 1547.40 397.96
  Q 1556.30 401.42 1560.05 411.59
  A 5.15 5.09 -57.9 0 1 1560.34 412.89
  C 1560.58 415.58 1561.30 417.92 1561.05 420.65
  Q 1560.35 428.36 1559.98 430.25
  Q 1557.39 443.61 1550.80 457.30
  C 1534.10 491.98 1511.43 523.43 1484.24 550.47
  Q 1482.87 551.84 1475.13 558.55
  Q 1469.93 563.07 1465.69 566.24
  Q 1446.45 580.65 1424.85 590.82
  Q 1422.65 591.86 1421.93 593.95
  Q 1412.75 620.60 1409.58 645.00
  Q 1408.49 653.35 1409.42 660.51
  A 3.57 3.35 -61.7 0 0 1409.66 661.41
  Q 1413.31 670.52 1423.26 669.56
  A 5.02 4.56 -54.1 0 0 1424.17 669.37
  Q 1430.81 667.19 1437.52 662.51
  C 1440.50 660.43 1444.63 657.19 1447.50 654.48
  Q 1462.90 639.97 1474.75 624.76
  C 1476.36 622.68 1478.18 620.23 1479.38 617.80
  Q 1490.72 594.85 1511.63 571.88
  Q 1529.48 552.27 1551.60 538.61
  Q 1566.92 529.15 1583.84 524.11
  C 1585.25 523.69 1586.91 523.75 1587.98 522.98
  A 1.49 1.47 -58.2 0 1 1589.06 522.72
  Q 1589.57 522.80 1592.75 522.10
  Q 1599.73 520.57 1610.88 520.66
  A 4.75 4.55 50.6 0 1 1611.97 520.79
  Q 1623.09 523.40 1631.60 531.83
  A 0.62 0.62 0.0 0 0 1632.52 531.79
  Q 1646.78 514.99 1668.47 521.54
  Q 1682.30 525.71 1686.31 540.24
  Q 1686.86 542.23 1686.00 547.75
  Q 1685.82 548.94 1683.70 553.33
  Q 1682.68 555.42 1680.48 558.43
  C 1676.46 563.96 1671.24 571.15 1667.18 577.76
  Q 1646.53 611.38 1630.22 647.74
  C 1628.06 652.54 1620.34 669.41 1624.20 671.39
  Q 1625.32 671.96 1626.78 671.29
  Q 1632.06 668.84 1637.52 664.54
  Q 1658.13 648.31 1672.72 629.95
  Q 1690.10 608.05 1697.19 598.46
  Q 1699.35 595.54 1700.95 591.97
  Q 1714.20 562.38 1727.70 541.93
  Q 1730.92 537.06 1733.78 533.31
  Q 1747.53 515.26 1770.11 521.19
  Q 1774.94 522.46 1779.26 525.72
  Q 1788.31 532.54 1789.05 543.91
  A 0.99 0.95 -43.8 0 1 1789.04 544.15
  L 1788.18 548.82
  A 1.98 1.97 -30.8 0 1 1788.08 549.21
  Q 1786.32 554.27 1778.63 564.59
  Q 1770.76 575.13 1759.35 595.61
  Q 1741.71 627.28 1733.00 646.98
  Q 1729.00 656.03 1726.69 663.18
  Q 1725.47 666.93 1725.38 670.58
  A 1.33 1.32 24.8 0 0 1725.72 671.49
  Q 1726.71 672.60 1728.63 671.61
  Q 1736.42 667.61 1743.92 661.64
  Q 1754.16 653.50 1763.22 643.72
  Q 1773.79 632.29 1779.46 624.98
  Q 1798.40 600.55 1804.60 592.10
  Q 1806.35 589.70 1806.87 588.63
  Q 1807.22 587.90 1816.44 568.92
  Q 1823.14 555.15 1831.14 544.14
  Q 1832.77 541.91 1838.06 535.06
  Q 1842.55 529.26 1845.92 526.89
  Q 1851.08 523.26 1857.44 521.63
  Q 1863.56 520.06 1870.25 520.32
  Q 1874.47 520.49 1878.85 521.91
  C 1885.70 524.11 1891.79 530.27 1893.52 536.86
  Q 1894.55 540.79 1893.26 546.64
  Q 1891.75 553.55 1886.49 561.74
  Q 1871.66 584.84 1867.23 591.97
  C 1855.12 611.46 1845.29 632.31 1836.28 653.51
  Q 1830.86 666.24 1825.71 679.16
  A 0.37 0.37 0.0 0 0 1826.25 679.61
  C 1849.16 665.29 1868.39 646.18 1885.51 625.01
  Q 1889.87 619.62 1892.03 615.27
  C 1894.31 610.70 1897.23 605.75 1899.81 601.67
  Q 1917.95 572.93 1944.45 550.96
  C 1960.38 537.75 1978.15 527.92 1998.08 522.06
  Q 1999.35 521.68 2000.48 521.62
  C 2001.73 521.54 2002.40 520.67 2003.60 520.73
  Q 2005.69 520.82 2008.09 520.00
  A 5.48 5.42 -55.2 0 1 2009.65 519.71
  Q 2015.38 519.45 2020.01 518.92
  Q 2022.95 518.58 2027.67 520.11
  Q 2037.21 523.19 2044.27 530.49
  A 0.61 0.60 41.5 0 0 2045.18 530.44
  Q 2049.55 524.81 2055.67 521.56
  C 2063.58 517.36 2074.57 517.43 2082.76 520.47
  Q 2095.56 525.22 2099.13 538.87
  Q 2099.79 541.39 2099.05 545.12
  C 2097.98 550.59 2095.05 555.33 2091.34 560.38
  Q 2082.30 572.70 2076.49 582.49
  Q 2053.30 621.51 2038.50 657.21
  Q 2035.44 664.58 2035.77 668.62
  Q 2036.00 671.48 2038.93 670.62
  Q 2042.26 669.63 2046.49 666.47
  Q 2069.65 649.13 2085.52 629.01
  Q 2098.31 612.80 2117.69 587.80
  A 5.23 5.23 0.0 0 1 2121.10 585.81
  L 2144.32 582.42
  A 0.61 0.60 -8.9 0 1 2145.00 582.91
  C 2145.81 587.14 2144.85 592.27 2142.89 596.22
  Q 2140.11 601.82 2139.21 603.20
  Q 2134.12 611.02 2123.40 626.15
  Q 2114.02 639.40 2102.85 653.45
  C 2099.47 657.71 2096.15 660.99 2092.25 665.50
  Q 2089.15 669.08 2080.66 677.17
  Q 2068.99 688.29 2055.28 696.60
  C 2051.83 698.69 2048.32 700.21 2045.26 701.96
  Q 2043.15 703.15 2041.13 703.82
  Q 2025.38 708.99 2010.24 704.97
  C 2005.17 703.62 1999.84 700.33 1996.33 696.00
  Q 1989.92 688.10 1988.42 677.51
  Z
  M 1441.52 550.51
  Q 1450.87 544.44 1458.78 537.27
  Q 1470.75 526.42 1479.35 515.10
  Q 1491.17 499.55 1501.47 481.98
  Q 1507.42 471.83 1514.74 458.51
  Q 1519.44 449.97 1522.69 441.69
  Q 1523.99 438.36 1524.06 435.03
  A 1.14 1.14 0.0 0 0 1522.51 433.95
  C 1518.29 435.57 1514.12 440.38 1511.18 443.66
  C 1489.68 467.61 1471.37 494.82 1455.35 523.61
  Q 1447.87 537.06 1441.12 550.16
  A 0.28 0.27 -3.2 0 0 1441.52 550.51
  Z
  M 1519.75 661.51
  Q 1518.95 667.87 1522.72 673.34
  C 1526.93 679.46 1538.49 673.45 1542.88 670.10
  Q 1554.80 661.03 1564.90 648.14
  C 1579.06 630.07 1591.22 609.81 1600.39 588.30
  C 1605.09 577.27 1609.00 569.14 1610.16 559.38
  Q 1610.68 555.05 1607.88 552.82
  A 2.44 2.38 -21.4 0 0 1606.72 552.33
  Q 1598.72 551.25 1591.24 555.78
  Q 1585.17 559.45 1579.84 564.10
  C 1574.42 568.85 1567.93 575.68 1563.00 581.88
  Q 1541.81 608.49 1527.03 640.31
  C 1523.55 647.80 1520.66 654.32 1519.75 661.51
  Z
  M 1932.11 660.80
  Q 1931.29 667.13 1935.03 672.58
  C 1939.21 678.68 1950.72 672.73 1955.10 669.41
  Q 1966.98 660.41 1977.06 647.61
  C 1991.19 629.67 2003.34 609.54 2012.52 588.16
  C 2017.22 577.19 2021.13 569.11 2022.31 559.41
  Q 2022.83 555.10 2020.05 552.87
  A 2.43 2.37 -21.3 0 0 2018.90 552.38
  Q 2010.94 551.29 2003.49 555.78
  Q 1997.44 559.42 1992.13 564.03
  C 1986.72 568.74 1980.25 575.52 1975.33 581.68
  Q 1954.18 608.10 1939.40 639.73
  C 1935.92 647.17 1933.03 653.65 1932.11 660.80
  Z
  M 1730.35 754.17
  Q 1705.62 762.99 1682.29 772.80
  Q 1676.40 775.27 1671.91 779.41
  C 1669.37 781.75 1665.67 786.51 1671.03 788.46
  Q 1673.18 789.25 1677.72 788.25
  Q 1692.51 785.01 1702.69 778.70
  Q 1718.84 768.69 1730.64 754.59
  A 0.26 0.26 0.0 0 0 1730.35 754.17
  Z"
/>
</svg>
